<svg width="296" height="67" viewBox="0 0 296 67" fill="none" xmlns="http://www.w3.org/2000/svg">
<path fill-rule="evenodd" clip-rule="evenodd" d="M82.5396 26.8V51.3667H87.0075H91.4755V26.8V2.23334H87.0075H82.5396V26.8ZM14.9064 6.03782C0.996647 12.0946 -0.630795 41.1726 12.4937 49.1724C17.414 52.1718 28.1438 52.1751 33.0585 49.178C36.8853 46.8464 40.0943 41.7566 40.0943 38.0225C40.0943 36.1532 39.3806 35.7333 36.2061 35.7333C32.9803 35.7333 32.1973 36.2135 31.6109 38.5507C30.0516 44.7605 20.9325 46.8285 16.1585 42.0559C11.2204 37.1191 11.112 20.5188 15.9809 14.8606C17.7547 12.7992 19.4927 12.06 22.57 12.06C27.2044 12.06 29.7813 13.6881 31.2467 17.5417C32.0353 19.6131 33.0607 20.1 36.6373 20.1C40.9522 20.1 41.0337 20.0263 40.1524 16.9532C38.6423 11.687 36.3982 8.97577 31.6433 6.66874C26.4303 4.1406 19.8345 3.89159 14.9064 6.03782ZM191.376 23.2624C187.431 33.9199 184.289 40.8577 183.536 40.5696C182.846 40.3039 181.624 37.3492 180.821 34.0025L179.361 27.9167H173.395C167.541 27.9167 167.43 27.977 167.43 31.1963C167.43 34.0539 167.881 34.5206 170.942 34.8255C174.215 35.1516 174.646 35.7255 177.286 43.2708L180.12 51.3667H185.266H190.412L195.918 34.6044C198.946 25.3852 201.88 17.994 202.439 18.1805C203.446 18.5155 207.593 30.5431 207.625 33.2208C207.635 34.0662 206.15 34.6167 203.863 34.6167C200.887 34.6167 199.94 35.1516 199.409 37.1292C198.315 41.2151 198.445 41.3167 204.756 41.3167H210.806L212.382 46.0625C213.868 50.5359 214.226 50.8284 218.619 51.1512C221.182 51.341 223.275 51.0897 223.27 50.5928C223.266 50.097 219.571 39.8929 215.061 27.9167L206.861 6.14167L202.411 5.80779L197.96 5.47279L191.376 23.2624ZM52.1298 18.4909C49.1475 20.1089 46.7962 23.2468 46.7962 25.6096C46.7962 27.7481 54.1415 26.9407 56.2906 24.5667C57.402 23.3383 59.2037 22.3333 60.2938 22.3333C62.8517 22.3333 65.7849 25.2813 65.7849 27.8519C65.7849 29.4845 64.4981 30.0071 58.9233 30.638C50.6051 31.5782 45.6792 35.5502 45.6792 41.3167C45.6792 46.6432 50.8955 51.3667 56.7787 51.3667C59.2908 51.3667 62.4116 50.7391 63.7118 49.9708C65.604 48.8542 66.1781 48.8542 66.5824 49.9708C66.8617 50.7413 68.9225 51.3678 71.1833 51.3678L75.2792 51.3689L74.9051 38.8053C74.494 24.9676 72.9794 20.0754 68.4712 18.0219C64.5964 16.2564 55.7812 16.5099 52.1298 18.4909ZM104.336 19.1709C100.286 22.3557 98.1774 27.652 98.1774 34.6368C98.1774 45.426 103.625 51.3667 113.519 51.3667C118.972 51.3667 120.029 50.9613 123.421 47.57C128.353 42.6399 128.404 40.2 123.579 40.2C121.147 40.2 119.474 40.9426 118.542 42.4333C117.574 43.9844 115.937 44.6667 113.19 44.6667C109.688 44.6667 109.037 44.1954 107.518 40.5618C105.53 35.807 106.265 27.8072 108.935 25.1384C111.999 22.0754 119.4 24.0966 119.4 27.996C119.4 28.5666 121.159 29.0333 123.309 29.0333C126.536 29.0333 127.219 28.6235 127.219 26.6883C127.219 25.3986 125.51 22.6348 123.421 20.5467C120.029 17.1554 118.972 16.75 113.519 16.75C108.948 16.75 106.641 17.3586 104.336 19.1709ZM133.549 17.4948C132.367 18.6751 132.697 39.2106 133.97 43.7968C134.605 46.0815 136.222 48.7191 137.563 49.6593C140.438 51.6715 147.589 51.9016 150.975 50.0903C152.765 49.1322 153.468 49.1322 153.787 50.0903C154.021 50.7916 155.93 51.3667 158.029 51.3667H161.845V34.0583V16.75H157.936H154.026V29.5526C154.026 41.0665 153.809 42.4713 151.866 43.5109C148.966 45.062 144.726 44.9726 143.08 43.3267C142.195 42.4423 141.74 37.6942 141.74 29.3683V16.75H138.017C135.968 16.75 133.958 17.085 133.549 17.4948ZM227.129 18.1771C226.828 18.9621 226.718 29.6408 226.885 41.9063L227.189 64.2083L231.377 64.5545L235.566 64.9018V57.017C235.566 49.8134 236.576 47.3657 238.358 50.25C238.738 50.8642 241.487 51.3667 244.468 51.3667C249.137 51.3667 250.284 50.8954 252.751 47.9664C262.199 36.7395 257.147 16.75 244.863 16.75C242.48 16.75 239.465 17.4971 238.162 18.4094C236.066 19.8767 235.719 19.8767 235.156 18.4094C234.371 16.3625 227.898 16.176 227.129 18.1771ZM263.99 18.1771C263.688 18.9621 263.579 29.6408 263.745 41.9063L264.049 64.2083L268.238 64.5545L272.426 64.9018V57.017C272.426 49.8134 273.436 47.3657 275.219 50.25C275.599 50.8642 278.305 51.3667 281.234 51.3667C289.574 51.3667 293.928 45.4405 293.928 34.0851C293.928 20.2563 285.703 13.2939 275.08 18.1324C272.668 19.2324 271.951 19.2324 271.584 18.1324C270.977 16.3089 264.692 16.3458 263.99 18.1771ZM246.137 24.9575C247.58 26.0116 248.33 28.2774 248.632 32.495C249.199 40.3965 247.341 43.9911 242.449 44.4634C236.698 45.0195 235.566 43.2954 235.566 33.9768C235.566 27.3617 235.94 25.5761 237.521 24.656C240.257 23.0625 243.711 23.1831 246.137 24.9575ZM282.13 24.3277C285.761 26.6347 286.866 36.075 284.126 41.3725C282.765 44.0023 281.685 44.6667 278.764 44.6667C273.394 44.6667 272.426 43.0218 272.426 33.8908C272.426 27.3583 272.804 25.575 274.381 24.656C276.703 23.3037 280.282 23.1519 282.13 24.3277ZM65.576 39.3547C64.9226 46.1239 54.6151 47.6169 54.6151 40.9426C54.6151 37.2866 56.7005 35.7333 61.6107 35.7333C65.805 35.7333 65.9167 35.835 65.576 39.3547Z" fill="#4444EF"/>
<path fill-rule="evenodd" clip-rule="evenodd" d="M82.0339 26.5667V51.1333H86.5018H90.9697V26.5667V2H86.5018H82.0339V26.5667ZM14.4007 5.80448C0.49091 11.8613 -1.13653 40.9393 11.988 48.9391C16.9083 51.9384 27.638 51.9418 32.5527 48.9447C36.3795 46.6131 39.5886 41.5233 39.5886 37.7892C39.5886 35.9199 38.8748 35.5 35.7004 35.5C32.4745 35.5 31.6915 35.9802 31.1051 38.3173C29.5458 44.5271 20.4268 46.5952 15.6528 41.8226C10.7146 36.8858 10.6063 20.2854 15.4752 14.6273C17.249 12.5659 18.987 11.8267 22.0643 11.8267C26.6986 11.8267 29.2755 13.4548 30.741 17.3084C31.5296 19.3798 32.555 19.8667 36.1315 19.8667C40.4464 19.8667 40.528 19.793 39.6467 16.7199C38.1365 11.4537 35.8925 8.74243 31.1375 6.4354C25.9246 3.90727 19.3288 3.65825 14.4007 5.80448ZM51.6241 18.2575C48.6417 19.8756 46.2905 23.0134 46.2905 25.3763C46.2905 27.5147 53.6358 26.7074 55.7848 24.3333C56.8962 23.105 58.6979 22.1 59.7881 22.1C62.346 22.1 65.2792 25.048 65.2792 27.6186C65.2792 29.2511 63.9924 29.7737 58.4176 30.4046C50.0994 31.3449 45.1735 35.3169 45.1735 41.0833C45.1735 46.4098 50.3898 51.1333 56.2729 51.1333C58.785 51.1333 61.9059 50.5058 63.2061 49.7375C65.0982 48.6208 65.6723 48.6208 66.0767 49.7375C66.3559 50.508 68.4168 51.1344 70.6775 51.1344L74.7735 51.1356L74.3993 38.5719C73.9883 24.7342 72.4736 19.8421 67.9655 17.7886C64.0907 16.0231 55.2755 16.2766 51.6241 18.2575ZM103.831 18.9376C99.7805 22.1223 97.6716 27.4187 97.6716 34.4034C97.6716 45.1927 103.119 51.1333 113.013 51.1333C118.466 51.1333 119.523 50.728 122.915 47.3367C127.847 42.4066 127.898 39.9667 123.073 39.9667C120.641 39.9667 118.968 40.7093 118.036 42.2C117.068 43.751 115.432 44.4333 112.684 44.4333C109.182 44.4333 108.531 43.9621 107.012 40.3285C105.025 35.5737 105.76 27.5739 108.429 24.9051C111.493 21.842 118.894 23.8632 118.894 27.7626C118.894 28.3332 120.654 28.8 122.804 28.8C126.031 28.8 126.713 28.3902 126.713 26.455C126.713 25.1653 125.004 22.4015 122.915 20.3133C119.523 16.922 118.466 16.5167 113.013 16.5167C108.443 16.5167 106.135 17.1252 103.831 18.9376ZM133.043 17.2615C131.861 18.4418 132.191 38.9773 133.464 43.5634C134.1 45.8481 135.716 48.4857 137.057 49.426C139.933 51.4382 147.084 51.6682 150.469 49.857C152.26 48.8989 152.962 48.8989 153.282 49.857C153.515 50.5583 155.424 51.1333 157.523 51.1333H161.34V33.825V16.5167H157.43H153.521V29.3193C153.521 40.8332 153.303 42.238 151.36 43.2776C148.461 44.8286 144.221 44.7393 142.574 43.0933C141.69 42.2089 141.234 37.4609 141.234 29.135V16.5167H137.511C135.462 16.5167 133.452 16.8517 133.043 17.2615ZM226.624 17.9438C226.322 18.7288 226.213 29.4075 226.379 41.6729L226.683 63.975L230.872 64.3212L235.06 64.6684V56.7837C235.06 49.5801 236.07 47.1323 237.853 50.0167C238.233 50.6308 240.981 51.1333 243.963 51.1333C248.632 51.1333 249.779 50.6621 252.245 47.7331C261.694 36.5061 256.641 16.5167 244.357 16.5167C241.974 16.5167 238.96 17.2637 237.656 18.176C235.561 19.6433 235.213 19.6433 234.65 18.176C233.865 16.1292 227.392 15.9427 226.624 17.9438ZM263.484 17.9438C263.183 18.7288 263.073 29.4075 263.24 41.6729L263.543 63.975L267.732 64.3212L271.921 64.6684V56.7837C271.921 49.5801 272.93 47.1323 274.713 50.0167C275.093 50.6308 277.799 51.1333 280.728 51.1333C289.069 51.1333 293.423 45.2072 293.423 33.8518C293.423 20.023 285.197 13.0606 274.575 17.8991C272.162 18.999 271.445 18.999 271.078 17.8991C270.471 16.0756 264.187 16.1124 263.484 17.9438ZM245.631 24.7242C247.075 25.7783 247.824 28.044 248.127 32.2617C248.693 40.1632 246.836 43.7578 241.943 44.2301C236.192 44.7862 235.06 43.0621 235.06 33.7435C235.06 27.1284 235.434 25.3428 237.015 24.4227C239.752 22.8292 243.205 22.9498 245.631 24.7242ZM281.624 24.0944C285.255 26.4014 286.36 35.8417 283.62 41.1392C282.259 43.7689 281.179 44.4333 278.258 44.4333C272.888 44.4333 271.921 42.7885 271.921 33.6575C271.921 27.125 272.298 25.3417 273.875 24.4227C276.198 23.0704 279.776 22.9185 281.624 24.0944ZM65.0703 39.1213C64.4169 45.8906 54.1094 47.3836 54.1094 40.7093C54.1094 37.0533 56.1948 35.5 61.105 35.5C65.2993 35.5 65.411 35.6016 65.0703 39.1213Z" fill="black" fill-opacity="0.87"/>
</svg>
